<svg id="visual" viewBox="0 0 960 540" width="960" height="540" xmlns="http://www.w3.org/2000/svg" xmlns:xlink="http://www.w3.org/1999/xlink" version="1.1"><rect x="0" y="0" width="960" height="540" fill="#49416D"></rect><path d="M720 540L748.2 534.7C776.3 529.3 832.7 518.7 843.8 508C855 497.3 821 486.7 792.8 476.2C764.7 465.7 742.3 455.3 732.3 444.8C722.3 434.3 724.7 423.7 724.5 413C724.3 402.3 721.7 391.7 745.3 381C769 370.3 819 359.7 825.7 349.2C832.3 338.7 795.7 328.3 807.5 317.8C819.3 307.3 879.7 296.7 896.5 286C913.3 275.3 886.7 264.7 867.8 254C849 243.3 838 232.7 825.8 222.2C813.7 211.7 800.3 201.3 809.2 190.8C818 180.3 849 169.7 856.2 159C863.3 148.3 846.7 137.7 817.7 127C788.7 116.3 747.3 105.7 727.3 95.2C707.3 84.7 708.7 74.3 725.5 63.8C742.3 53.3 774.7 42.7 779.8 32C785 21.3 763 10.7 752 5.3L741 0L960 0L960 5.3C960 10.7 960 21.3 960 32C960 42.7 960 53.3 960 63.8C960 74.3 960 84.7 960 95.2C960 105.7 960 116.3 960 127C960 137.7 960 148.3 960 159C960 169.7 960 180.3 960 190.8C960 201.3 960 211.7 960 222.2C960 232.7 960 243.3 960 254C960 264.7 960 275.3 960 286C960 296.7 960 307.3 960 317.8C960 328.3 960 338.7 960 349.2C960 359.7 960 370.3 960 381C960 391.7 960 402.3 960 413C960 423.7 960 434.3 960 444.8C960 455.3 960 465.7 960 476.2C960 486.7 960 497.3 960 508C960 518.7 960 529.3 960 534.7L960 540Z" fill="#656D41" stroke-linecap="round" stroke-linejoin="miter"></path></svg>