<svg id="visual" viewBox="0 0 1920 1080" width="1920" height="1080" xmlns="http://www.w3.org/2000/svg" xmlns:xlink="http://www.w3.org/1999/xlink" version="1.1"><g stroke-width="1" stroke-linejoin="bevel"><path d="M716 476L1253 0L686 0Z" fill="#250720" stroke="#9f2b68"></path><path d="M716 476L1296 611L1253 0Z" fill="#24071e" stroke="#9f2b68"></path><path d="M716 476L1210 1080L1296 611Z" fill="#24071e" stroke="#9f2b68"></path><path d="M0 564L606 1080L716 476Z" fill="#290a36" stroke="#9f2b68"></path><path d="M716 476L606 1080L1210 1080Z" fill="#280829" stroke="#9f2b68"></path><path d="M1920 495L1920 0L1253 0Z" fill="#270824" stroke="#9f2b68"></path><path d="M1920 495L1253 0L1296 611Z" fill="#24071e" stroke="#9f2b68"></path><path d="M1920 1080L1920 495L1296 611Z" fill="#24071e" stroke="#9f2b68"></path><path d="M686 0L0 0L716 476Z" fill="#280829" stroke="#9f2b68"></path><path d="M0 0L0 564L716 476Z" fill="#24071e" stroke="#9f2b68"></path><path d="M1210 1080L1920 1080L1296 611Z" fill="#290931" stroke="#9f2b68"></path><path d="M0 564L0 1080L606 1080Z" fill="#280829" stroke="#9f2b68"></path></g></svg>